<svg height="512pt" viewBox="0 0 512 512" width="512pt" xmlns="http://www.w3.org/2000/svg" xmlns:xlink="http://www.w3.org/1999/xlink"><linearGradient id="a" gradientUnits="userSpaceOnUse" x1="0" x2="512" y1="256" y2="256"><stop offset="0" stop-color="#00f38d"/><stop offset="1" stop-color="#009eff"/></linearGradient><path d="m512 256c0 141.386719-114.613281 256-256 256s-256-114.613281-256-256 114.613281-256 256-256 256 114.613281 256 256zm0 0" fill="url(#a)"/><path d="m433.941406 371.914062-55.203125-32.101562v-136.890625l-107.042969-54.5v-79.121094h-30v78.4375l-107.738281 55.210938v136.0625l-55.898437 32.324219v32.09375l69.859375-40.378907 108.058593 55.648438 108.046876-55.285157 69.917968 40.640626zm-177.941406-120.914062-75.128906-38.382812 75.152344-38.511719 75.371093 38.375zm-92.042969-13.335938 77.738281 39.714844v100.21875l-77.738281-40.035156zm107.738281 139.292969v-100.289062l77.042969-39.359375v100.226562zm0 0" fill="#fff"/></svg>