<?xml version="1.0" ?><svg style="enable-background:new 0 0 48 48;" version="1.1" viewBox="0 0 48 48" xml:space="preserve" xmlns="http://www.w3.org/2000/svg" xmlns:xlink="http://www.w3.org/1999/xlink"><g id="Padding__x26__Artboard"/><g id="Icons"><g><g><path d="M23.99691,14.57058c-5.20001,0-9.42004,4.21997-9.42004,9.42993     c0,5.20001,4.22003,9.42999,9.42004,9.42999c5.20996,0,9.42999-4.22998,9.42999-9.42999     C33.4269,18.79055,29.20687,14.57058,23.99691,14.57058z" style="fill:#FFFFFF;"/><path d="M23.31752,16.017c-4.77755,0-8.65474,3.87713-8.65474,8.66383     c0,4.77755,3.87719,8.66388,8.65474,8.66388c4.7867,0,8.66388-3.88633,8.66388-8.66388     C31.98141,19.89413,28.10422,16.017,23.31752,16.017z" style="fill:#B9D4F8;"/><path d="M23.99594,16.30295c-4.24306,0-7.68649,3.44338-7.68649,7.69456     c0,4.24306,3.44343,7.69461,7.68649,7.69461c4.25118,0,7.69461-3.45154,7.69461-7.69461     C31.69055,19.74633,28.24712,16.30295,23.99594,16.30295z" style="fill:#659BDB;"/></g><path d="M28.09499,23.12252h-2.97296v-0.14923h-0.24701v-3.07074c0-0.47998-0.39001-0.87-0.88-0.87    c-0.47998,0-0.87,0.38995-0.87,0.87v3.07074h-0.20612v0.14923h-3.01392c-0.48999,0-0.87994,0.39001-0.87994,0.88    c0,0.48004,0.38995,0.87,0.87994,0.87h3.01392v0.30389h0.20612v2.91614c0,0.48999,0.39001,0.88,0.87,0.88    c0.48999,0,0.88-0.39001,0.88-0.88v-2.91614h0.24701v-0.30389h2.97296c0.48004,0,0.88-0.38995,0.88-0.87    C28.975,23.51253,28.57504,23.12252,28.09499,23.12252z" style="fill:#FFFFFF;"/><g><g><g><path d="       M24.875,23.12254v-3.22c0-0.48-0.39-0.87-0.88-0.87c-0.48,0-0.87,0.39-0.87,0.87v3.22" style="fill:none;stroke:#1B4A9A;stroke-width:0.7;stroke-linecap:round;stroke-linejoin:round;stroke-miterlimit:10;"/><path d="       M24.875,24.87254v3.22c0,0.49-0.39,0.88-0.88,0.88c-0.48,0-0.87-0.39-0.87-0.88v-3.22" style="fill:none;stroke:#1B4A9A;stroke-width:0.7;stroke-linecap:round;stroke-linejoin:round;stroke-miterlimit:10;"/></g><g><path d="       M23.125,24.87254h-3.22c-0.49,0-0.88-0.39-0.88-0.87c0-0.49,0.39-0.88,0.88-0.88h3.22" style="fill:none;stroke:#1B4A9A;stroke-width:0.7;stroke-linecap:round;stroke-linejoin:round;stroke-miterlimit:10;"/><path d="       M24.875,24.87254h3.22c0.48,0,0.88-0.39,0.88-0.87c0-0.49-0.4-0.88-0.88-0.88h-3.22" style="fill:none;stroke:#1B4A9A;stroke-width:0.7;stroke-linecap:round;stroke-linejoin:round;stroke-miterlimit:10;"/></g></g><circle cx="24" cy="23.99754" r="9.42804" style="fill:none;stroke:#1B4A9A;stroke-width:0.7;stroke-linecap:round;stroke-linejoin:round;stroke-miterlimit:10;"/></g></g></g></svg>