<?xml version="1.0" ?><!DOCTYPE svg  PUBLIC '-//W3C//DTD SVG 1.1//EN'  'http://www.w3.org/Graphics/SVG/1.1/DTD/svg11.dtd'><svg enable-background="new 0 0 256 256" height="256px" id="Layer_1" version="1.1" viewBox="0 0 256 256" width="256px" xml:space="preserve" xmlns="http://www.w3.org/2000/svg" xmlns:xlink="http://www.w3.org/1999/xlink"><path d="M73.811,128c0-5.302,4.303-9.599,9.603-9.599s9.597,4.297,9.597,9.599s-4.297,9.599-9.597,9.599S73.811,133.302,73.811,128z   M130.026,137.599c5.3,0,9.597-4.297,9.597-9.599s-4.297-9.599-9.597-9.599s-9.603,4.297-9.603,9.599  S124.727,137.599,130.026,137.599z M172.586,137.6c5.3,0,9.6-4.298,9.6-9.6s-4.3-9.6-9.6-9.6s-9.6,4.298-9.6,9.6  S167.286,137.6,172.586,137.6z M256,128C256,57.42,198.58,0,128,0C57.42,0,0,57.42,0,128c0,70.58,57.42,128,128,128  C198.58,256,256,198.58,256,128z M243.2,128c0,63.521-51.679,115.2-115.2,115.2c-63.522,0-115.2-51.679-115.2-115.2  C12.8,64.478,64.478,12.8,128,12.8C191.521,12.8,243.2,64.478,243.2,128z"/></svg>