<?xml version="1.0" ?><!DOCTYPE svg  PUBLIC '-//W3C//DTD SVG 1.1//EN'  'http://www.w3.org/Graphics/SVG/1.1/DTD/svg11.dtd'><svg enable-background="new 0 0 711.071 705.07" height="705.07px" id="Layer_1" version="1.1" viewBox="0 0 711.071 705.07" width="711.071px" xml:space="preserve" xmlns="http://www.w3.org/2000/svg" xmlns:xlink="http://www.w3.org/1999/xlink"><circle cx="364.521" cy="355.441" fill="#111111" r="322.668"/><g><path d="M530.406,354.133c0,0-67.68,116.823-168.123,116.823c-100.442,0-168.122-116.823-168.122-116.823   s67.68-117.254,168.122-117.254C462.727,236.879,530.406,354.133,530.406,354.133z M444.621,354.133   c0-45.264-37.073-82.337-82.338-82.337s-82.337,37.073-82.337,82.337s37.072,82.336,82.337,82.336S444.621,399.396,444.621,354.133   z M362.283,317.06c-20.261,0-36.642,17.243-36.642,37.073c0,20.261,16.381,36.642,36.642,36.642   c19.83,0,37.073-16.381,37.073-36.642C399.356,334.303,382.113,317.06,362.283,317.06z" fill="#F4B300"/></g></svg>