<?xml version="1.0" ?><svg data-name="Layer 1" height="24" id="Layer_1" viewBox="0 0 24 24" width="24" xmlns="http://www.w3.org/2000/svg"><title/><circle cx="9.25" cy="9.25" r="0.75"/><circle cx="14.75" cy="9.25" r="0.75"/><path d="M18,9.11047V3.20709a.5.5,0,0,0-.85358-.35358L15.11865,4.88135a5.95958,5.95958,0,0,0-6.27173.02087l-1.99-2.02863A.5.5,0,0,0,6,3.22369V9.11047C4.85895,9.62012,4,11.83917,4,14.5,4,17.53754,5.11926,20,6.5,20a1.33406,1.33406,0,0,0,.79272-.28693,5.98805,5.98805,0,0,0,9.41455,0A1.33406,1.33406,0,0,0,17.5,20c1.38074,0,2.5-2.46246,2.5-5.5C20,11.83917,19.14105,9.62012,18,9.11047ZM9.25,11.25a2,2,0,1,1,2-2A2,2,0,0,1,9.25,11.25ZM12,14l-1-2c0-.3595,2-.3595,2,0Zm2.75-2.75a2,2,0,1,1,2-2A2,2,0,0,1,14.75,11.25Z"/></svg>