<?xml version="1.0" ?><svg style="enable-background:new 0 0 48 48;" version="1.1" viewBox="0 0 48 48" xml:space="preserve" xmlns="http://www.w3.org/2000/svg" xmlns:xlink="http://www.w3.org/1999/xlink"><g id="Padding__x26__Artboard"/><g id="Icons"><g><path d="M19.22878,32.65403l14.04136-7.46777c0.9611-0.51115,0.96122-1.88839,0.00022-2.39972    l-13.86819-7.37887c-0.27948-0.14871-0.60212-0.19518-0.91221-0.13139l-3.35653,0.69044    c-0.94959,0.19533-1.39516,1.29359-0.85008,2.09532l2.99964,4.41199c0.2987,0.43934,0.78275,0.717,1.31279,0.75304    l11.1421,0.75763l-11.38489,0.84704c-0.41396,0.0308-0.79115,0.24909-1.02408,0.59268l-3.07558,4.53661    c-0.54833,0.80882-0.08945,1.91469,0.87044,2.09766l3.55776,0.67818C18.86806,32.77242,19.06114,32.74319,19.22878,32.65403z" style="fill:#FFFFFF;"/><path d="M33.54972,22.98948l-0.73999-0.44l0.46002,0.23999    C33.36973,22.83952,33.46976,22.90952,33.54972,22.98948z" style="fill:#B9D4F8;"/><path d="M33.26975,25.18949l-14.03998,7.46002c-0.17004,0.08997-0.36005,0.12-0.55005,0.08997    l-3.56-0.67999c-0.95996-0.17999-1.40997-1.28998-0.87-2.09998l3.08002-4.54004c0.22998-0.33997,0.60999-0.56,1.02002-0.58997    l11.38995-0.84003l-11.13995-0.76001c-0.53003-0.03998-1.02002-0.31995-1.32001-0.75995l-2.23999-3.29004l-0.07001-0.10999    c0,0-0.01001-0.01001-0.01001-0.02002c-0.06-0.20996-0.03998-0.63-0.02002-0.70996c0.07001-0.69,0.02246-1.10586,0.6225-1.41585    c0.70996-0.37,2.10754-0.71415,2.91754-0.60417c0.84998,0.10999,1.62,0.53003,2.35999,0.92999    c2.60999,1.41998,5.29999,2.64001,8.01996,3.79999c1.56006,0.67004,3.12006,1.31,4.69,1.94l0.01001,0.01001    C34.21976,23.59953,34.11973,24.73948,33.26975,25.18949z" style="fill:#B9D4F8;"/><path d="M32.34977,25.67948l-13.12,6.97003c-0.17004,0.08997-0.36005,0.12-0.55005,0.08997    l-2.03998-0.38995c-1.34998-0.32001-0.72998-1.81006-0.72998-1.81006c0.44259-0.73947,0.88324-1.48014,1.33295-2.21532    c0.22485-0.36759,0.45182-0.73389,0.68259-1.09815c0.33282-0.52553,0.50239-0.83694,1.16801-0.90702    c3.50187-0.36872,7.19048-0.5121,10.43645-2.02951l-0.22003-0.25l-0.58997,0.03003l1.01996-0.08002L18.96976,23.2595h0.96997    c0,0-3.06-3.69-3.44-4.63c-0.38-0.92999,0.72003-1.59003,1.72003-1.5c1,0.09998,14.37,6.57001,14.37,6.57001    S33.75974,24.48948,32.34977,25.67948z" style="fill:#659BDB;"/><path d="M14.90598,31.757c0.08969,0.02728-0.1875-0.96876,0.25004-1.65632    c0.82808-1.3012,1.77443-2.7149,2.67183-3.96868c0.67335-0.94076,2.23542-0.66314,3.28963-0.85513    c1.36731-0.24901,2.73388-0.50204,4.101-0.75216c0,0-6.94376-0.20857-7.70625,0.68373    c-0.7625,0.8923-3.42739,5.09986-3.42739,5.09986S13.63966,31.37176,14.90598,31.757z" style="fill:#FFFFFF;"/><path d="    M19.22878,32.65403l14.04136-7.46777c0.9611-0.51115,0.96122-1.88839,0.00022-2.39972l-13.86819-7.37887    c-0.27948-0.14871-0.60212-0.19518-0.91221-0.13139l-3.35653,0.69044c-0.94959,0.19533-1.39516,1.29359-0.85008,2.09532    l2.99964,4.41199c0.2987,0.43934,0.78275,0.717,1.31279,0.75304l11.1421,0.75763l-11.38489,0.84704    c-0.41396,0.0308-0.79115,0.24909-1.02408,0.59268l-3.07558,4.53661c-0.54833,0.80882-0.08945,1.91469,0.87044,2.09766    l3.55776,0.67818C18.86806,32.77242,19.06114,32.74319,19.22878,32.65403z" style="fill:none;stroke:#1B4A9A;stroke-width:0.7;stroke-linecap:round;stroke-linejoin:round;stroke-miterlimit:10;"/></g></g></svg>