<?xml version="1.0" ?><!DOCTYPE svg  PUBLIC '-//W3C//DTD SVG 1.1//EN'  'http://www.w3.org/Graphics/SVG/1.1/DTD/svg11.dtd'><svg enable-background="new 0 0 256 256" height="256px" id="Layer_1" version="1.1" viewBox="0 0 256 256" width="256px" xml:space="preserve" xmlns="http://www.w3.org/2000/svg" xmlns:xlink="http://www.w3.org/1999/xlink"><path d="M109.083,183.336c-1.521,0-3-0.542-4.166-1.541l-37.83-32.426c-2.683-2.301-2.994-6.341-0.694-9.025  c2.3-2.682,6.341-2.992,9.025-0.693l32.732,28.058l71.542-91.981c2.171-2.789,6.188-3.295,8.981-1.122  c2.789,2.17,3.292,6.191,1.122,8.981l-75.663,97.279c-1.075,1.382-2.667,2.263-4.41,2.438  C109.511,183.325,109.297,183.336,109.083,183.336z M256,128C256,57.42,198.58,0,128,0S0,57.42,0,128c0,70.58,57.42,128,128,128  S256,198.58,256,128z M243.2,128c0,63.521-51.679,115.2-115.2,115.2c-63.522,0-115.2-51.679-115.2-115.2  C12.8,64.478,64.478,12.8,128,12.8C191.521,12.8,243.2,64.478,243.2,128z"/></svg>