<?xml version="1.0" standalone="no"?><!-- Generator: Gravit.io --><svg xmlns="http://www.w3.org/2000/svg" xmlns:xlink="http://www.w3.org/1999/xlink" style="isolation:isolate" viewBox="0 0 24 24" width="24" height="24"><defs><clipPath id="_clipPath_AyiZ0eSiYRb7Nuhcd1Feq56QbKvMDqPd"><rect width="24" height="24"/></clipPath></defs><g clip-path="url(#_clipPath_AyiZ0eSiYRb7Nuhcd1Feq56QbKvMDqPd)"><path d=" M 16.875 9.31 L 16.875 4.415 C 16.875 4.247 16.776 4.096 16.624 4.032 C 16.472 3.967 16.298 4.003 16.181 4.121 L 14.534 5.803 C 12.969 4.822 10.996 4.829 9.438 5.821 L 7.821 4.138 C 7.706 4.018 7.53 3.981 7.378 4.045 C 7.225 4.108 7.125 4.26 7.125 4.428 L 7.125 9.31 C 6.198 9.733 5.5 11.573 5.5 13.78 C 5.5 16.299 6.409 18.341 7.531 18.341 C 7.766 18.335 7.991 18.252 8.175 18.103 C 9.098 19.301 10.508 20 12 20 C 13.492 20 14.902 19.301 15.825 18.103 C 16.009 18.252 16.234 18.335 16.469 18.341 C 17.591 18.341 18.5 16.299 18.5 13.78 C 18.5 11.573 17.802 9.733 16.875 9.31 Z  M 9.766 11.085 C 8.868 11.085 8.141 10.342 8.141 9.426 C 8.141 8.51 8.868 7.768 9.766 7.768 C 10.663 7.768 11.391 8.51 11.391 9.426 C 11.391 10.342 10.663 11.085 9.766 11.085 Z  M 12 13.365 L 11.188 11.707 C 11.188 11.409 12.813 11.409 12.813 11.707 L 12 13.365 Z  M 14.234 11.085 C 13.337 11.085 12.609 10.342 12.609 9.426 C 12.609 8.51 13.337 7.768 14.234 7.768 C 15.132 7.768 15.859 8.51 15.859 9.426 C 15.859 10.342 15.132 11.085 14.234 11.085 Z " fill="rgb(0,0,0)"/></g></svg>