<?xml version="1.0" standalone="no"?><!-- Generator: Gravit.io --><svg xmlns="http://www.w3.org/2000/svg" xmlns:xlink="http://www.w3.org/1999/xlink" style="isolation:isolate" viewBox="0 0 24 24" width="24" height="24"><defs><clipPath id="_clipPath_gwvPYN1ZUrySpTueGvxItljdOKutQ8LK"><rect width="24" height="24"/></clipPath></defs><g clip-path="url(#_clipPath_gwvPYN1ZUrySpTueGvxItljdOKutQ8LK)"><circle vector-effect="non-scaling-stroke" cx="9.25" cy="9.25" r="0.75" fill="rgb(0,0,0)"/><circle vector-effect="non-scaling-stroke" cx="14.75" cy="9.25" r="0.75" fill="rgb(0,0,0)"/><path d=" M 18 9.11 L 18 3.207 C 18 3.005 17.878 2.822 17.691 2.745 C 17.504 2.668 17.289 2.71 17.146 2.854 L 15.119 4.881 C 13.193 3.699 10.764 3.707 8.847 4.902 L 6.857 2.874 C 6.715 2.729 6.499 2.684 6.311 2.761 C 6.123 2.838 6 3.021 6 3.224 L 6 9.11 C 4.859 9.62 4 11.839 4 14.5 C 4 17.538 5.119 20 6.5 20 C 6.788 19.993 7.066 19.892 7.293 19.713 C 8.428 21.157 10.163 22 12 22 C 13.837 22 15.572 21.157 16.707 19.713 C 16.934 19.892 17.212 19.993 17.5 20 C 18.881 20 20 17.538 20 14.5 C 20 11.839 19.141 9.62 18 9.11 Z  M 9.25 11.25 C 8.145 11.25 7.25 10.355 7.25 9.25 C 7.25 8.145 8.145 7.25 9.25 7.25 C 10.355 7.25 11.25 8.145 11.25 9.25 C 11.25 10.355 10.355 11.25 9.25 11.25 Z  M 12 14 L 11 12 C 11 11.641 13 11.641 13 12 L 12 14 Z  M 14.75 11.25 C 13.645 11.25 12.75 10.355 12.75 9.25 C 12.75 8.145 13.645 7.25 14.75 7.25 C 15.855 7.25 16.75 8.145 16.75 9.25 C 16.75 10.355 15.855 11.25 14.75 11.25 Z " fill="rgb(0,0,0)"/></g></svg>