<svg height="682.66669pt" viewBox="-21 -21 682.66669 682.66669" width="682.66669pt" xmlns="http://www.w3.org/2000/svg"><path d="m640 320c0 176.734375-143.265625 320-320 320s-320-143.265625-320-320 143.265625-320 320-320 320 143.265625 320 320zm0 0" fill="#68fcdf"/><path d="m640 320c0 176.722656-143.277344 320-320 320s-320-143.277344-320-320c0-57.773438 15.3125-111.960938 42.101562-158.75 55.148438 96.335938 158.949219 161.25 277.898438 161.25s222.765625-64.914062 277.898438-161.25c26.789062 46.789062 42.101562 100.976562 42.101562 158.75zm0 0" fill="#10e2c4"/><path d="m601.578125 472.125v.015625c-54.117187 99.960937-159.929687 167.859375-281.578125 167.859375s-227.460938-67.898438-281.578125-167.859375v-.015625zm0 0" fill="#1aba9f"/><path d="m499.785156 453.964844-21.875-177.667969 6.191406-13.796875c7.507813-16.8125 5.25-36.410156-5.929687-51.0625l-10.769531-14.113281c-6.976563-9.125-19.855469-11.273438-29.390625-4.863281l-31.222657 20.9375h-173.578124l-31.222657-20.9375c-9.535156-6.410157-22.414062-4.261719-29.390625 4.863281l-10.769531 14.113281c-11.179687 14.652344-13.4375 34.25-5.929687 51.0625l6.191406 13.796875-21.550782 174.992187-15.113281 122.773438c53.910157 41.347656 121.375 65.9375 194.574219 65.9375.824219 0 1.636719 0 2.460938-.015625 72.25-.535156 138.804687-25.03125 192.113281-65.921875zm0 0" fill="#fff"/><path d="m514.574219 574.0625c-53.308594 40.890625-119.863281 65.386719-192.113281 65.921875v-426.585937h84.328124l31.222657-20.9375c9.535156-6.410157 22.414062-4.261719 29.390625 4.863281l10.769531 14.113281c11.179687 14.652344 13.4375 34.25 5.929687 51.0625l-6.191406 13.796875 21.875 177.667969zm0 0" fill="#d0f6ff"/><path d="m197.675781 211.75c-5.191406-3.472656-12.1875-2.3125-15.976562 2.648438l-5.847657 7.664062c-6.078124 7.960938-7.316406 18.609375-3.214843 27.75l3.347656 7.511719 38.65625-34.183594zm0 0" fill="#8fc9f7"/><path d="m464.847656 222.0625-5.847656-7.664062c-3.785156-4.960938-10.789062-6.121094-15.960938-2.648438l-16.976562 11.390625 38.648438 34.183594 3.367187-7.511719c4.085937-9.140625 2.84375-19.789062-3.230469-27.75zm0 0" fill="#8fc9f7"/><path d="m294.261719 419.304688h-22.363281v-20h22.207031c2.734375-.042969 5.484375-.300782 8.175781-.769532l10.21875-1.773437v-36.847657h20v53.675782l-26.800781 4.652344c-3.742188.648437-7.566407 1.011718-11.363281 1.0625zm0 0" fill="#323b5a"/><path d="m373.414062 419.304688h-22.75c-3.796874-.054688-7.621093-.414063-11.363281-1.0625l-26.800781-4.652344v-53.675782h20v36.847657l10.21875 1.773437c2.691406.46875 5.441406.726563 8.175781.769532h22.523438v20zm0 0" fill="#323b5a"/><path d="m345.113281 370.1875-17.632812 11.261719c-1.523438.972656-3.253907 1.472656-4.984375 1.488281-1.824219.023438-3.648438-.476562-5.238282-1.507812l-17.433593-11.230469c-5.097657-3.285157-7.597657-9.402344-6.265625-15.316407l.949218-4.199218c.601563-2.675782 1.816407-5.175782 3.546876-7.300782h.007812c3.359375-4.117187 8.386719-6.5 13.695312-6.5h21.480469c2.65625 0 5.242188.597657 7.585938 1.707032 2.339843 1.113281 4.441406 2.738281 6.121093 4.800781 1.730469 2.117187 2.941407 4.617187 3.546876 7.292969l.9375 4.160156c1.339843 5.933594-1.191407 12.070312-6.316407 15.34375zm0 0" fill="#474f6f"/><path d="m345.113281 370.1875-17.632812 11.261719c-1.523438.972656-3.253907 1.472656-4.984375 1.488281v-46.058594h10.742187c2.65625 0 5.242188.601563 7.582031 1.710938 2.34375 1.113281 4.445313 2.738281 6.117188 4.792968 1.734375 2.125 2.949219 4.625 3.554688 7.300782l.9375 4.15625c1.339843 5.9375-1.191407 12.074218-6.316407 15.347656zm0 0" fill="#323b5a"/><path d="m272.15625 313.078125c0 10.273437-8.328125 18.601563-18.601562 18.601563-10.277344 0-18.601563-8.328126-18.601563-18.601563 0-10.28125 8.324219-18.609375 18.601563-18.609375 10.273437 0 18.601562 8.328125 18.601562 18.609375zm0 0" fill="#474f6f"/><path d="m405.046875 313.078125c0 10.273437-8.324219 18.601563-18.601563 18.601563-10.273437 0-18.601562-8.328126-18.601562-18.601563 0-10.28125 8.328125-18.609375 18.601562-18.609375 10.277344 0 18.601563 8.328125 18.601563 18.609375zm0 0" fill="#323b5a"/><path d="m514.574219 574.0625c-53.308594 40.890625-119.863281 65.386719-192.113281 65.921875-.824219.015625-1.636719.015625-2.460938.015625-73.199219 0-140.664062-24.589844-194.574219-65.9375l15.113281-122.773438 55.558594 32.546876 18.089844 10.613281c33.4375 19.589843 70.859375 29.363281 108.273438 29.363281 37.414062 0 74.824218-9.773438 108.25-29.363281l18.085937-10.613281 50.988281-29.871094zm0 0" fill="#d0f6ff"/><path d="m514.574219 574.0625c-53.308594 40.890625-119.863281 65.386719-192.113281 65.921875v-116.171875c37.414062 0 74.824218-9.773438 108.25-29.363281l18.085937-10.613281 50.988281-29.871094zm0 0" fill="#8fc9f7"/><g fill="#fff"><path d="m115.453125 248.847656h-1.902344c-8.441406 0-15.289062-6.847656-15.289062-15.285156v-1.90625h-10.894531v1.90625c0 8.4375-6.839844 15.285156-15.28125 15.285156h-1.90625v10.894532h1.90625c8.441406 0 15.28125 6.839843 15.28125 15.28125v1.910156h10.894531v-1.910156c0-8.441407 6.847656-15.28125 15.289062-15.28125h1.902344zm0 0"/><path d="m196.269531 117.429688h-1.902343c-8.445313 0-15.285157-6.839844-15.285157-15.28125v-1.90625h-10.894531v1.90625c0 8.441406-6.84375 15.28125-15.28125 15.28125h-1.910156v10.898437h1.910156c8.4375 0 15.28125 6.84375 15.28125 15.285156v1.902344h10.894531v-1.902344c0-8.441406 6.839844-15.285156 15.285157-15.285156h1.902343zm0 0"/><path d="m489 117.429688h-1.90625c-8.4375 0-15.28125-6.839844-15.28125-15.28125v-1.90625h-10.894531v1.90625c0 8.441406-6.839844 15.28125-15.285157 15.28125h-1.90625v10.898437h1.90625c8.445313 0 15.285157 6.84375 15.285157 15.285156v1.902344h10.894531v-1.902344c0-8.441406 6.84375-15.285156 15.28125-15.285156h1.90625zm0 0"/><path d="m569.820312 248.847656h-1.90625c-8.441406 0-15.28125-6.847656-15.28125-15.285156v-1.90625h-10.894531v1.90625c0 8.4375-6.847656 15.285156-15.289062 15.285156h-1.902344v10.894532h1.902344c8.441406 0 15.289062 6.839843 15.289062 15.28125v1.910156h10.894531v-1.910156c0-8.441407 6.839844-15.28125 15.28125-15.28125h1.90625zm0 0"/></g></svg>