<?xml version="1.0" ?><svg data-name="Layer 1" height="24" id="Layer_1" viewBox="0 0 24 24" width="24" xmlns="http://www.w3.org/2000/svg"><title/><path d="M20,11c0,5.5228-2,11-8,11S4,16.5228,4,11s3.58169-9,8-9S20,5.4772,20,11Z" style="fill:#d9e3e6"/><path d="M7.27609,12.1795h0c.2283.4844,2.6786,1.74,3.6786-1.1795.0937-.375-.2413-.8699-1.4598-1.3817C6.80369,8.488,6.71669,11.5192,7.27609,12.1795Z" style="fill:#4b5661"/><path d="M16.69339,12.1795h0c-.2283.4844-2.6786,1.74-3.6786-1.1795-.0937-.375.24121-.8699,1.4598-1.3817C17.16579,8.488,17.25279,11.5192,16.69339,12.1795Z" style="fill:#4b5661"/><circle cx="12" cy="14" r="0.75" style="fill:#b3c1c9"/><circle cx="12" cy="17" r="0.75" style="fill:#b3c1c9"/><circle cx="9" cy="18" r="0.75" style="fill:#b3c1c9"/><circle cx="15" cy="18" r="0.75" style="fill:#b3c1c9"/><circle cx="14.75" cy="7" r="0.75" style="fill:#b3c1c9"/><circle cx="9.25" cy="7" r="0.75" style="fill:#b3c1c9"/><circle cx="6.25" cy="7.75" r="0.75" style="fill:#b3c1c9"/><circle cx="17.75" cy="7.75" r="0.75" style="fill:#b3c1c9"/><circle cx="14.75" cy="4.25" r="0.75" style="fill:#b3c1c9"/><circle cx="9.25" cy="4.25" r="0.75" style="fill:#b3c1c9"/><path d="M20.84369,12h-2V10h2A3.27755,3.27755,0,0,1,20.84369,12Z" style="fill:#738394"/><path d="M5.15629,12h-2a3.27788,3.27788,0,0,1,0-2h2Z" style="fill:#738394"/><ellipse cx="12" cy="8.5" rx="2" ry="0.5" style="fill:#fa6d62"/><ellipse cx="7.54192" cy="15.54192" rx="1.99998" ry="0.5" style="fill:#fa6d62" transform="translate(-8.78082 9.88507) rotate(-45)"/><ellipse cx="16.45807" cy="15.54192" rx="0.5" ry="1.99998" style="fill:#fa6d62" transform="translate(-6.16934 16.18974) rotate(-45)"/></svg>