<?xml version="1.0" ?><svg data-name="Layer 1" height="24" id="Layer_1" viewBox="0 0 24 24" width="24" xmlns="http://www.w3.org/2000/svg"><title/><circle cx="8.5" cy="8.5" r="6.5" style="fill:#fa6d62"/><circle cx="15.5" cy="8.5" r="6.5" style="fill:#fa6d62"/><path d="M16.5,13.3695H6v2.9736a4,4,0,0,0,1.1716,2.8285l2.2426,2.2426A2,2,0,0,0,10.8284,22h2.3432a2,2,0,0,0,1.4142-.5858l2.2426-2.2426A4,4,0,0,0,18,16.3431V13.3695Z" style="fill:#e3edf0"/><path d="M17.2681,16H6.7319A1.7319,1.7319,0,0,1,5,14.2681,10.46669,10.46669,0,0,1,5,13a13.8465,13.8465,0,0,0,.4859-1.4999A13.82778,13.82778,0,0,0,5,10,8.26176,8.26176,0,0,1,5,9a6,6,0,0,1,6-6h2a6,6,0,0,1,6,6,8.26176,8.26176,0,0,1,0,1,13.82626,13.82626,0,0,0-.4859,1.5001A13.845,13.845,0,0,0,19,13a10.46821,10.46821,0,0,1,0,1.2681A1.73191,1.73191,0,0,1,17.2681,16Z" style="fill:#e3edf0"/><circle cx="9" cy="11" r="2.5" style="fill:#4b5661"/><circle cx="15" cy="11" r="2.5" style="fill:#4b5661"/><circle cx="15" cy="11" r="0.75" style="fill:#fff"/><circle cx="9" cy="11" r="0.75" style="fill:#fff"/><path d="M14,19H10c-2,0-3-2-3-4H17C17,17,16,19,14,19Z" style="fill:#fa6d62"/><polygon points="10 17 9 15 11 15 10 17" style="fill:#fff"/><polygon points="12 17 11 15 13 15 12 17" style="fill:#fff"/><polygon points="14 17 13 15 15 15 14 17" style="fill:#fff"/><polygon points="13 18 12 19 14 19 13 18" style="fill:#fff"/><polygon points="11 18 10 19 12 19 11 18" style="fill:#fff"/><path d="M8,9V7A1,1,0,0,1,9,6H9a1,1,0,0,1,1,1V9Z" style="fill:#4b5661"/><path d="M14,9V7a1,1,0,0,1,1-1h0a1,1,0,0,1,1,1V9Z" style="fill:#4b5661"/><circle cx="12" cy="13" r="2" style="fill:#fa6d62"/></svg>