<?xml version="1.0" ?><svg data-name="Layer 1" height="24" id="Layer_1" viewBox="0 0 24 24" width="24" xmlns="http://www.w3.org/2000/svg"><title/><rect height="4" style="fill:#bec7c9" width="10" x="12" y="2"/><path d="M16.5,13.3695H6v4.7256a1.9998,1.9998,0,0,0,.8313,1.623L9.4764,21.623A2.00032,2.00032,0,0,0,10.6452,22h2.7096a2.00032,2.00032,0,0,0,1.1688-.377l2.6451-1.9049A1.99981,1.99981,0,0,0,18,18.0951V13.3695Z" style="fill:#bec7c9"/><path d="M16,17a4.00005,4.00005,0,0,0,4-4V9a7,7,0,0,0-7-7H11A7,7,0,0,0,4,9v4a4,4,0,0,0,4,4h.0002l.3338,1.3359A.87668.87668,0,0,0,9.1845,19h5.6311a.87669.87669,0,0,0,.8504-.664L16,17Z" style="fill:#d9e3e6"/><rect height="4" style="fill:#fa6d62" width="16" x="4" y="10"/><path d="M14.0918,10A1.48454,1.48454,0,0,0,14,10.5a1.5,1.5,0,0,0,3,0,1.48454,1.48454,0,0,0-.0918-.5Z" style="fill:#fff"/><path d="M7.0918,10A1.48454,1.48454,0,0,0,7,10.5a1.5,1.5,0,0,0,3,0,1.48454,1.48454,0,0,0-.0918-.5Z" style="fill:#fff"/><path d="M13,14H11l.5184-1.0368a.53842.53842,0,0,1,.9632,0Z" style="fill:#fff"/><path d="M12.9408,16H11.0592a.65465.65465,0,0,1-.5855-.9474L11,14h2l.5263,1.0526A.65465.65465,0,0,1,12.9408,16Z" style="fill:#bec7c9"/></svg>