<?xml version="1.0" ?><svg data-name="Layer 1" height="24" id="Layer_1" viewBox="0 0 24 24" width="24" xmlns="http://www.w3.org/2000/svg"><title/><path d="M19,9.5C19,18,11.5,22,11.5,22S4,18,4,9.5a7.5,7.5,0,0,1,15,0Z" style="fill:#fa6d62"/><path d="M5,9H18a3,3,0,0,1,3,3v0a0,0,0,0,1,0,0H2a0,0,0,0,1,0,0v0A3,3,0,0,1,5,9Z" style="fill:#fa6d62"/><path d="M9.569,9.82986A1.6791,1.6791,0,0,1,6.89257,7.80152C7.45268,7.06244,10.12913,9.09078,9.569,9.82986Z" style="fill:#fff"/><polygon points="9.5 16.5 8.5 14.5 10.5 14.5 9.5 16.5" style="fill:#fff"/><polygon points="13.5 16.5 12.5 14.5 14.5 14.5 13.5 16.5" style="fill:#fff"/><path d="M13.48258,9.82986A1.6791,1.6791,0,1,0,16.159,7.80152C15.59892,7.06244,12.92247,9.09078,13.48258,9.82986Z" style="fill:#fff"/><path d="M10,13h3a2,2,0,0,1,2,2v0a0,0,0,0,1,0,0H8a0,0,0,0,1,0,0v0A2,2,0,0,1,10,13Z" style="fill:#fff"/></svg>