<?xml version="1.0" ?><svg data-name="Layer 1" height="24" id="Layer_1" viewBox="0 0 24 24" width="24" xmlns="http://www.w3.org/2000/svg"><title/><path d="M8.6458,8C10.4982,8,13,5.4982,13,3.6458V3H11.5625A6.5639,6.5639,0,0,0,5.5196,7Z" style="fill:#fa6d62"/><path d="M16.5,13.3695H6v4.7256a1.9998,1.9998,0,0,0,.8313,1.623L9.4764,21.623A2.00032,2.00032,0,0,0,10.6452,22h2.7096a2.00032,2.00032,0,0,0,1.1688-.377l2.6451-1.9049A1.99981,1.99981,0,0,0,18,18.0951V13.3695Z" style="fill:#4080c2"/><path d="M13,2H12V3.6458A3.3543,3.3543,0,0,1,8.6458,7H4.2937A6.99509,6.99509,0,0,0,4,9v3a4,4,0,0,0,4,4h.0002l.3338,1.3359A.87668.87668,0,0,0,9.1845,18h5.6311a.87669.87669,0,0,0,.8504-.664L15.9999,16H16a4,4,0,0,0,4-4V9A7,7,0,0,0,13,2Z" style="fill:#4c9ae8"/><circle cx="8" cy="11" r="2.5" style="fill:#fff2db"/><circle cx="16" cy="11" r="2.5" style="fill:#fff2db"/><path d="M10.7698,14.6549h0a6.56476,6.56476,0,0,1,.7539-1.4853.53563.53563,0,0,1,.9154,0,6.54136,6.54136,0,0,1,.7544,1.4853.53554.53554,0,0,1-.5248.6758c-.5243,0-.3989-.6083-.6687-.6036-.2835.0053-.1971.6036-.7059.6036a.53491.53491,0,0,1-.5243-.6758Z" style="fill:#3871ab"/><path d="M10.5,19h-1v.5a.50005.50005,0,0,0,.5.5h0a.50006.50006,0,0,0,.5-.5Z" style="fill:#fff2db"/><path d="M12.5,19h-1v.5a.50005.50005,0,0,0,.5.5h0a.50006.50006,0,0,0,.5-.5Z" style="fill:#fff2db"/><path d="M14.5,19h-1v.5a.50005.50005,0,0,0,.5.5h0a.50006.50006,0,0,0,.5-.5Z" style="fill:#fff2db"/><path d="M10.5,18.5h-1v-1A.50005.50005,0,0,1,10,17h0a.50006.50006,0,0,1,.5.5Z" style="fill:#fff2db"/><path d="M12.5,18.5h-1v-1A.50005.50005,0,0,1,12,17h0a.50006.50006,0,0,1,.5.5Z" style="fill:#fff2db"/><path d="M14.5,18.5h-1v-1A.50005.50005,0,0,1,14,17h0a.50006.50006,0,0,1,.5.5Z" style="fill:#fff2db"/><circle cx="16.625" cy="11.4167" r="1" style="fill:#738394"/><circle cx="7.6667" cy="10.5417" r="1" style="fill:#738394"/></svg>