<?xml version="1.0" ?><svg data-name="Layer 1" height="24" id="Layer_1" viewBox="0 0 24 24" width="24" xmlns="http://www.w3.org/2000/svg"><title/><ellipse cx="6.5" cy="14.5" rx="2.5" ry="5.5" style="fill:#4b5661"/><ellipse cx="17.5" cy="14.5" rx="2.5" ry="5.5" style="fill:#4b5661"/><path d="M12,22h0a6,6,0,0,1-6-6V10a6,6,0,0,1,6-6h0a6,6,0,0,1,6,6v6A6,6,0,0,1,12,22Z" style="fill:#4b5661"/><path d="M18,10,13,7l4.1464-4.1464A.5.5,0,0,1,18,3.2071Z" style="fill:#4b5661"/><path d="M6,10l4.6598-3.2496L6.8569,2.8736A.5.5,0,0,0,6,3.2237Z" style="fill:#4b5661"/><circle cx="9.25" cy="9.25" r="2" style="fill:#fff4ab"/><circle cx="9.25" cy="9.25" r="0.75" style="fill:#4b5661"/><circle cx="14.75" cy="9.25" r="2" style="fill:#fff4ab"/><circle cx="14.75" cy="9.25" r="0.75" style="fill:#4b5661"/><path d="M12,14l-1-2c0-.3595,2-.3595,2,0Z" style="fill:#fff4ab"/></svg>