<?xml version="1.0" ?><svg data-name="Layer 1" height="24" id="Layer_1" viewBox="0 0 24 24" width="24" xmlns="http://www.w3.org/2000/svg"><title/><ellipse cx="3.34792" cy="11.14645" rx="1.2071" ry="2.00002" style="fill:#7486bf" transform="translate(-6.90115 5.63206) rotate(-45)"/><ellipse cx="20.65207" cy="11.14645" rx="2.00002" ry="1.2071" style="fill:#7486bf" transform="translate(-1.83288 17.86794) rotate(-45)"/><path d="M16.5,13.3695H6v4.7256a1.9998,1.9998,0,0,0,.83129,1.623l2.6451,1.9049a2.00032,2.00032,0,0,0,1.1688.377h2.7096a2.00032,2.00032,0,0,0,1.1688-.377l2.6451-1.9049A1.99981,1.99981,0,0,0,18,18.0951V13.3695Z" style="fill:#7a8dc9"/><path d="M16,14H8v6a1,1,0,0,0,.4.8l1.33329,1a1.00032,1.00032,0,0,0,.6.2h3.3334a1.00029,1.00029,0,0,0,.6-.2L15.6,20.8A1,1,0,0,0,16,20Z" style="fill:#8799d6"/><path d="M17,17H7a2.99994,2.99994,0,0,1-3-3V9c0-3.866,3.134-6,7-6h2c3.866,0,7,2.134,7,6v5A3,3,0,0,1,17,17Z" style="fill:#8799d6"/><path d="M10.069,12.335a1.6791,1.6791,0,0,1-2.67641-2.0284C7.95269,9.5676,10.62909,11.5959,10.069,12.335Z" style="fill:#fff"/><path d="M13.98259,12.335A1.6791,1.6791,0,0,0,16.659,10.3066C16.09889,9.5676,13.42249,11.5959,13.98259,12.335Z" style="fill:#fff"/><path d="M16,17H8a2,2,0,0,1,2-2h4a2,2,0,0,1,2,2Z" style="fill:#a0b1e8"/><path d="M14,19H10a2,2,0,0,1-2-2h8A2,2,0,0,1,14,19Z" style="fill:#fa6d62"/><polygon points="10 19 9 17 11 17 10 19" style="fill:#fff"/><polygon points="14 19 13 17 15 17 14 19" style="fill:#fff"/><path d="M4,10V9a7,7,0,0,1,7-7h2a7,7,0,0,1,7,7v1L17.84349,7.1247a1.36262,1.36262,0,0,0-1.9413-.2465l-1.0483.8386a4.56818,4.56818,0,0,1-5.7078,0l-1.0483-.8386a1.36262,1.36262,0,0,0-1.9413.2465Z" style="fill:#4b5661"/></svg>