<?xml version="1.0" ?><svg data-name="Layer 1" height="24" id="Layer_1" viewBox="0 0 24 24" width="24" xmlns="http://www.w3.org/2000/svg"><title/><path d="M12,9.90137A6.98457,6.98457,0,0,1,4.9502,3a.75.75,0,1,1,1.5,0A5.48322,5.48322,0,0,0,12,8.40137,5.48322,5.48322,0,0,0,17.5498,3a.75.75,0,0,1,1.5,0A6.98457,6.98457,0,0,1,12,9.90137Z" style="fill:#4b5661"/><path d="M19,18.2461a.75015.75015,0,0,1-.75-.75c0-2.9785-2.8037-5.4014-6.25-5.4014s-6.25,2.4229-6.25,5.4014a.75.75,0,0,1-1.5,0c0-3.8057,3.4766-6.9014,7.75-6.9014s7.75,3.0957,7.75,6.9014A.75015.75015,0,0,1,19,18.2461Z" style="fill:#4b5661"/><path d="M13.1001,10.7798c-.2153,0-.4199-.002-.6108-.0044L12,10.772c-2.2988,0-7.6826,0-9.6826-4.3887a.75012.75012,0,0,1,1.3652-.62207C5.2822,9.272,9.8193,9.272,12,9.272l.5054.00391c2.3447.01807,5.9004.062,7.833-3.55664a.74989.74989,0,1,1,1.3232.70605C19.4902,10.4932,15.5679,10.7798,13.1001,10.7798Z" style="fill:#4b5661"/><path d="M2.9995,15.1738a.74989.74989,0,0,1-.6821-1.061c2-4.38917,7.3838-4.38917,9.6826-4.38917l.4888-.00342c2.3803-.03027,6.812-.07226,9.1728,4.35059a.74991.74991,0,0,1-1.3232.7061c-1.9321-3.6197-5.4873-3.5801-7.8335-3.5572L12,11.2236c-2.1807,0-6.7178,0-8.3174,3.5113A.75091.75091,0,0,1,2.9995,15.1738Z" style="fill:#4b5661"/><circle cx="12" cy="9.99998" r="2.99996" style="fill:#4b5661" transform="translate(-2.37547 3.88888) rotate(-16.77489)"/><path d="M12,7.75A2.7528,2.7528,0,0,1,9.25,5a.75.75,0,0,1,1.5,0,1.25,1.25,0,0,0,2.5,0,.75.75,0,0,1,1.5,0A2.7528,2.7528,0,0,1,12,7.75Z" style="fill:#4b5661"/><circle cx="12" cy="17" r="5" style="fill:#4b5661"/><path d="M12.5,14h-1A2.5,2.5,0,0,0,9,16.5V17a1.5,1.5,0,0,0,1.5,1.5H11V19a1,1,0,0,0,2,0v-.5h.5A1.5,1.5,0,0,0,15,17v-.5A2.5,2.5,0,0,0,12.5,14Zm-1.75,2.75A.75.75,0,1,1,11.5,16,.75.75,0,0,1,10.75,16.75Zm2.5,0A.75.75,0,1,1,14,16,.75.75,0,0,1,13.25,16.75Z" style="fill:#fa6d62"/></svg>