<?xml version="1.0" ?><svg data-name="Layer 1" height="24" id="Layer_1" viewBox="0 0 24 24" width="24" xmlns="http://www.w3.org/2000/svg"><title/><path d="M6,10,1,8A26.7756,26.7756,0,0,0,4,19l2-2,3,1,3,4,3-4,3-1,2,2A26.38858,26.38858,0,0,0,23,8l-5,2Z" style="fill:#4b5661"/><path d="M16,11H8V2.6036a.25.25,0,0,1,.4268-.1768L10,4h4l1.5732-1.5732A.25.25,0,0,1,16,2.6036Z" style="fill:#4b5661"/><path d="M9.4245,7.8684h0a1.127,1.127,0,0,1,0-1.5938h0c.4401-.4402,2.034,1.1537,1.5938,1.5938h0A1.127,1.127,0,0,1,9.4245,7.8684Z" style="fill:#fa6d62"/><path d="M14.5755,7.8684h0a1.127,1.127,0,0,1-1.5938,0h0c-.4402-.4401,1.1537-2.034,1.5938-1.5938h0A1.127,1.127,0,0,1,14.5755,7.8684Z" style="fill:#fa6d62"/><polygon points="10 12 9 10 11 10 10 12" style="fill:#fff"/><polygon points="14 12 13 10 15 10 14 12" style="fill:#fff"/></svg>