<?xml version="1.0" ?><svg data-name="Layer 1" height="24" id="Layer_1" viewBox="0 0 24 24" width="24" xmlns="http://www.w3.org/2000/svg"><title/><line style="fill:none;stroke:#9aa6b5;stroke-miterlimit:10;stroke-width:1.5px" x1="12" x2="12" y1="12" y2="21.45"/><path d="M12.41669,2h-.83337A4.62227,4.62227,0,0,0,7,6.66028v2.645A1.68087,1.68087,0,0,0,8.66669,11h.92316l.74347,2h3.33337l.74347-2h.92316A1.68087,1.68087,0,0,0,17,9.3053v-2.645A4.62227,4.62227,0,0,0,12.41669,2Z" style="fill:#d9e3e6"/><path d="M12.45557,10.43066c-.36169,0-.27515-.41968-.4613-.41638-.19556.00366-.13593.41638-.487.41638a.369.369,0,0,1-.36169-.46625,4.52949,4.52949,0,0,1,.52008-1.0246.3695.3695,0,0,1,.63153,0,4.51337,4.51337,0,0,1,.52045,1.0246A.36941.36941,0,0,1,12.45557,10.43066Z" style="fill:#738394"/><line style="fill:none;stroke:#9aa6b5;stroke-linecap:round;stroke-miterlimit:10;stroke-width:1.5px" x1="5" x2="5" y1="18" y2="20"/><line style="fill:none;stroke:#9aa6b5;stroke-linecap:round;stroke-miterlimit:10;stroke-width:1.5px" x1="19" x2="19" y1="18" y2="20"/><polyline points="5 16 8 14.75 12 16 16 14.75 19 16" style="fill:none;stroke:#9aa6b5;stroke-linecap:round;stroke-miterlimit:10;stroke-width:1.5px"/><polyline points="8 17.5 12 18.75 16 17.5" style="fill:none;stroke:#9aa6b5;stroke-linecap:round;stroke-miterlimit:10;stroke-width:1.5px"/><polyline points="8 20.2 12 21.45 16 20.2" style="fill:none;stroke:#9aa6b5;stroke-linecap:round;stroke-miterlimit:10;stroke-width:1.5px"/><path d="M15.8159,8.36425h0c-.14421.30589-.60437.37126-1.29237.39482-.64836.02171-1.14.05007-1.44783-1.28889-.09556-.344.56944-.60022,1.339-.92342C16.11422,5.83295,16.16916,7.94722,15.8159,8.36425Z" style="fill:#738394"/><path d="M8.18872,8.36425h0c.14421.30589.60437.37126,1.29237.39482.64836.02171,1.14.05007,1.44783-1.28889.09556-.344-.56944-.60022-1.339-.92342C7.89041,5.83295,7.83547,7.94722,8.18872,8.36425Z" style="fill:#738394"/></svg>